<svg width="120" height="121" viewBox="0 0 120 121" fill="none" xmlns="http://www.w3.org/2000/svg">
<path d="M44.9299 24.325C42.5862 25.3094 33.5158 29.0828 28.4533 38.8563C27.3752 40.9422 22.3127 50.7156 26.0393 59.3406C30.9846 70.7781 46.0315 67.9891 52.9455 78.7469C58.8752 88.0047 46.5705 97.0984 51.8674 108.114C54.633 113.856 61.008 118.661 66.8908 119.106C85.2893 120.489 118.336 80.8563 104.906 49.7547C95.1096 27.1609 63.8908 16.4266 44.9299 24.325Z" fill="url(#paint0_linear_302_173)"/>
<path d="M82.4296 42.0904L48.5624 29.5279C47.5311 29.1529 46.4061 29.6686 46.0311 30.6998L23.1561 92.2701C22.7811 93.3014 23.2967 94.4264 24.328 94.8014L58.1952 107.364C59.2264 107.739 60.3514 107.223 60.7264 106.192L83.6014 44.5983C83.9764 43.5904 83.4608 42.4654 82.4296 42.0904Z" fill="#2D548D"/>
<path opacity="0.09" d="M62.1328 73.6374C61.289 73.6374 60.4218 73.614 59.5312 73.5671C46.3828 72.8405 35.6484 66.9812 30.8203 57.9108C23.1093 43.4265 30.6796 23.2468 42.2812 16.8952C48.1406 13.6609 53.2265 13.7546 56.4609 14.4109C61.9921 15.5124 66.0703 18.0671 67.9453 21.5827C69.9609 25.3562 68.8828 28.8952 67.7343 32.6218C66.7031 35.9733 65.6484 39.4187 66.914 43.1452C68.039 46.4733 70.9687 47.5046 74.0859 48.6062C77.2499 49.7312 80.5312 50.8796 82.289 54.5124C84.1406 58.3562 83.9062 63.6062 81.7734 66.7702C78.8671 70.989 71.1796 73.6374 62.1328 73.6374ZM52.8046 14.3171C49.9218 14.3171 46.3359 14.9734 42.4218 17.1296C30.9374 23.4343 23.4375 43.4499 31.0781 57.7937C35.8593 66.7937 46.5234 72.5827 59.5781 73.3093C69.6093 73.8718 78.4453 71.1765 81.5624 66.6296C83.6484 63.5593 83.8828 58.403 82.0546 54.653C80.3437 51.114 77.1328 49.989 74.0156 48.8874C70.8515 47.7624 67.8515 46.7077 66.6796 43.2624C65.3906 39.4421 66.4687 35.9499 67.4999 32.5515C68.6249 28.8718 69.7031 25.3796 67.7343 21.6999C65.9062 18.2546 61.8749 15.7468 56.4374 14.6687C55.3828 14.4577 54.164 14.3171 52.8046 14.3171Z" fill="#AAAAD5"/>
<path opacity="0.2" d="M74.2266 39.0437L70.4766 41.5515L37.7344 63.5359L32.5547 67.0281L39.6797 47.7859L44.8828 44.2937L56.625 36.3953L60.375 33.8875L74.2266 39.0437Z" fill="#EEEDF3"/>
<path opacity="0.2" d="M81.6797 41.8093L77.9297 44.3171L33.8906 73.8953L28.6875 77.364L31.2187 70.5906L36.3984 67.1218V67.0984L73.0547 42.5124L76.8047 39.9812L81.6797 41.8093Z" fill="#EEEDF3"/>
<path d="M82.4295 42.0904L81.6795 41.8092L76.8045 40.0045L74.2264 39.0436L60.3748 33.9107L48.5623 29.5279C47.5545 29.1529 46.406 29.6686 46.031 30.6998L39.6795 47.8092L32.531 67.0514L31.1951 70.6373L28.6873 77.4107L23.156 92.317C23.0857 92.5045 23.0623 92.692 23.0389 92.8795C22.9685 93.7232 23.4842 94.5436 24.3279 94.8482L30.6092 97.192L35.3435 98.9498L47.8592 103.59L52.4295 105.278L58.1951 107.411C59.2029 107.786 60.3514 107.27 60.7264 106.262L83.1795 45.7936L83.6014 44.6686C83.9764 43.5904 83.4607 42.4654 82.4295 42.0904ZM79.2185 45.9107L78.7498 47.1998L59.4139 99.3014C59.2029 99.8404 58.5935 100.145 58.031 99.9342L53.7889 98.3639L48.656 96.4654L38.0623 92.5279L33.2107 90.7232L29.3435 89.2936C28.9217 89.1295 28.6639 88.7545 28.6639 88.3326C28.6639 88.192 28.6639 88.0514 28.7342 87.9108L33.9373 73.9186L36.4451 67.1451L37.781 63.5592L44.9295 44.317L48.5623 34.5436C48.7732 34.0045 49.3826 33.6998 49.9217 33.9107L56.6717 36.4186L70.5232 41.5514L73.1013 42.5123L77.9764 44.317L78.6092 44.5514C79.1482 44.7623 79.4295 45.3717 79.2185 45.9107Z" fill="#EEEDF3"/>
<path d="M40.3122 98.5515C39.3513 98.1999 38.8591 97.1218 39.2107 96.1609C39.5622 95.1999 40.6404 94.7078 41.6013 95.0593C42.5622 95.4109 43.0544 96.489 42.7029 97.4499C42.3279 98.4343 41.2497 98.9031 40.3122 98.5515Z" fill="#C9C7D9"/>
<path opacity="0.1" d="M62.9532 5.76254L15.6798 21.4188C14.5313 21.7938 13.922 23.036 14.297 24.161L18.8907 37.9891C19.2657 39.1375 20.5079 39.7469 21.6329 39.3719L26.297 37.825L28.5704 37.075C29.1563 37.45 30.6095 38.4344 31.1954 38.786C31.7345 39.0907 32.4376 38.8563 32.6954 38.2938C32.9766 37.661 33.5626 36.0204 33.797 35.3641L45.2813 31.5438L68.9063 23.7157C70.0548 23.3407 70.6641 22.0985 70.2891 20.9735L65.6954 7.14535C65.3204 5.99691 64.1016 5.38754 62.9532 5.76254Z" fill="#3F3F3F"/>
<path d="M62.9531 2.10619L12.2344 18.9109C11.0156 19.3093 10.3594 20.6453 10.7578 21.864L15.6797 36.6999C16.0781 37.9187 17.4141 38.5749 18.6328 38.1765L23.625 36.5124L26.0625 35.7156C26.6719 36.1374 28.2422 37.1687 28.875 37.5437C29.4375 37.8718 30.2109 37.614 30.4922 37.0046C30.7734 36.3249 31.4297 34.5437 31.6641 33.864L43.9922 29.7859L69.3515 21.3718C70.5703 20.9734 71.2265 19.6374 70.8281 18.4187L65.9062 3.58276C65.5078 2.36401 64.1953 1.70776 62.9531 2.10619Z" fill="url(#paint1_linear_302_173)"/>
<path d="M25.0779 25.8718C25.4295 25.2624 25.5233 24.5124 25.2889 23.7858L24.8904 22.5905C24.4451 21.2546 23.0389 20.4343 21.6795 20.8327C20.2733 21.2546 19.5233 22.7311 19.9686 24.1139L20.3904 25.4264C20.6248 26.153 21.1639 26.6921 21.7967 26.9733C20.3436 28.0749 19.4998 29.8327 19.617 31.6843C19.6639 32.4108 20.3904 32.8561 21.0701 32.6452L28.992 30.0202C29.6717 29.7858 29.9764 28.9889 29.6014 28.3796C28.617 26.7858 26.9061 25.8718 25.0779 25.8718Z" fill="white"/>
<path d="M44.1563 13.3562L34.0548 16.7077C33.2344 16.989 32.7891 17.8796 33.0469 18.6999L34.6876 23.6687C34.9688 24.489 35.8594 24.9343 36.6798 24.6765L37.6641 24.3484C37.6641 24.3484 39.5391 25.614 40.1719 25.989C40.6407 26.2468 41.2735 26.0593 41.4844 25.5437C41.7891 24.864 42.5391 22.7312 42.5391 22.7312L46.7813 21.3249C47.6016 21.0437 48.0469 20.1531 47.7891 19.3327L46.1485 14.364C45.8672 13.5202 44.9766 13.0749 44.1563 13.3562Z" fill="white"/>
<path d="M35.8125 19.0046C35.4843 19.0749 35.1328 18.9109 35.039 18.5827C34.9218 18.2312 35.1093 17.8562 35.4609 17.7624L43.664 15.0437C43.9922 14.9265 44.3906 15.114 44.4843 15.4655C44.6015 15.8171 44.414 16.1921 44.0625 16.2859L35.8593 19.0046C35.8359 19.0046 35.8359 19.0046 35.8125 19.0046Z" fill="#E2E1E1"/>
<path d="M36.5156 21.1609C36.1875 21.2312 35.8359 21.0671 35.7422 20.739C35.625 20.3874 35.8125 20.0124 36.164 19.9187L44.3672 17.1999C44.6953 17.0827 45.0937 17.2702 45.1875 17.6218C45.3047 17.9734 45.1171 18.3484 44.7656 18.4421L36.5625 21.1609C36.5625 21.1374 36.539 21.1609 36.5156 21.1609Z" fill="#E2E1E1"/>
<path d="M37.2424 23.2937C36.9143 23.364 36.5627 23.1999 36.469 22.8718C36.3518 22.5202 36.5393 22.1452 36.8908 22.0515L40.594 20.8327C40.9221 20.7155 41.2971 20.903 41.4143 21.2546C41.5315 21.6062 41.344 21.9812 40.9924 22.0749L37.2893 23.2937C37.2658 23.2937 37.2658 23.2937 37.2424 23.2937Z" fill="#E2E1E1"/>
<path d="M65.2032 15.6999C64.8751 14.6921 64.2188 13.8484 63.4219 13.2859L63.0704 12.2077C62.461 10.403 60.6797 9.34835 58.8516 9.60617L58.7579 9.30148C58.6407 8.94992 58.2657 8.76242 57.9141 8.8796C57.5625 8.99679 57.375 9.37179 57.4922 9.72335L57.586 10.028C55.9688 10.8952 55.1719 12.8171 55.7579 14.6218L56.1094 15.6999C55.8047 16.6374 55.7813 17.6921 56.1094 18.6999L56.2735 19.1687C56.3438 19.403 56.6016 19.5437 56.836 19.4499L58.6407 18.8405C58.6641 18.9812 58.7344 19.1218 58.8985 19.1687C59.6485 19.4265 60.4922 19.4265 61.3125 19.1687C62.1329 18.9109 62.7891 18.3952 63.2579 17.739C63.3516 17.5984 63.3516 17.4343 63.2813 17.3171L65.086 16.7077C65.3204 16.6374 65.461 16.3796 65.3672 16.1452L65.2032 15.6999Z" fill="white"/>
<path d="M57.5158 18.6765C57.8673 19.7311 57.2814 20.903 56.2267 21.2546C55.172 21.6061 54.0002 21.0202 53.6486 19.9655C53.297 18.9108 53.883 17.739 54.9377 17.3874C56.0158 17.0358 57.1642 17.5983 57.5158 18.6765Z" fill="#E83C3B"/>
<path opacity="0.1" d="M113.953 45.583L100.992 44.0361C100.43 43.9658 99.9375 44.3642 99.8672 44.9267L98.3203 57.8877C98.25 58.4502 98.6484 58.9424 99.2109 59.0127L112.172 60.5596C112.734 60.6299 113.227 60.2314 113.297 59.6689L114.844 46.708C114.914 46.1689 114.516 45.6533 113.953 45.583Z" fill="#3F3F3F"/>
<path d="M115.476 58.7548L100.336 56.9501C100.078 56.9266 99.8905 56.6923 99.9374 56.4345L101.742 41.2938C101.766 41.036 102 40.8485 102.258 40.8954L117.398 42.7001C117.656 42.7235 117.844 42.9579 117.797 43.2157L115.992 58.3563C115.969 58.5907 115.734 58.7782 115.476 58.7548Z" fill="#F8AA09"/>
<path d="M101.555 55.2861L103.055 42.7471C103.078 42.583 103.219 42.4893 103.359 42.4893L115.898 43.9893C116.063 44.0127 116.156 44.1533 116.156 44.2939L114.656 56.833C114.633 56.9971 114.492 57.0908 114.352 57.0908L101.813 55.5908C101.648 55.5908 101.555 55.4502 101.555 55.2861Z" fill="#FBBA38"/>
<path d="M109.172 50.8797L107.719 52.0281C107.461 52.239 107.062 52.1922 106.851 51.9344C106.641 51.6765 106.266 51.6297 105.984 51.8406L103.851 53.5281C103.43 53.8562 103.617 54.5594 104.156 54.6297L104.414 54.6531L109.453 55.2625L112.289 55.5906C112.828 55.6609 113.18 55.0281 112.851 54.6062L110.039 50.9734C109.828 50.7156 109.43 50.6687 109.172 50.8797Z" fill="#EE9F05"/>
<path d="M106.57 48.4422C106.5 49.0282 105.961 49.45 105.375 49.3797C104.789 49.3094 104.367 48.7704 104.437 48.1844C104.508 47.5985 105.047 47.1766 105.633 47.2469C106.219 47.3172 106.64 47.8563 106.57 48.4422Z" fill="#EE9F05"/>
<path opacity="0.1" d="M32.0158 82.3561C31.5236 80.7858 29.8595 79.9186 28.2892 80.4108L9.1642 86.4577C7.59388 86.9498 6.7267 88.6139 7.21888 90.1842L11.1564 102.63C11.6486 104.2 13.3126 105.067 14.8829 104.575L16.7579 103.989C16.7579 103.989 20.2501 106.403 21.4689 107.13C22.3361 107.645 23.5314 107.27 23.9533 106.333C24.5392 105.044 25.9923 101.059 25.9923 101.059L34.008 98.528C35.5783 98.0358 36.4455 96.3717 35.9533 94.8014L32.0158 82.3561Z" fill="#3F3F3F"/>
<path d="M24.9844 77.575L4.47659 84.0671C2.78909 84.6062 1.87503 86.3875 2.39065 88.075L6.6094 101.434C7.14846 103.122 8.92971 104.036 10.6172 103.52L12.6094 102.887C12.6094 102.887 16.3594 105.489 17.6485 106.262C18.586 106.825 19.875 106.403 20.3203 105.419C20.9532 104.036 22.5 99.7468 22.5 99.7468L31.1016 97.0281C32.7891 96.489 33.7032 94.7078 33.1875 93.0203L28.9688 79.6609C28.4766 77.9734 26.6719 77.0359 24.9844 77.575Z" fill="url(#paint2_linear_302_173)"/>
<path d="M25.0547 84.489L8.41404 89.7625C7.87498 89.9265 7.28904 89.6453 7.12498 89.0828C6.96092 88.5437 7.2656 87.9578 7.80467 87.7937L24.4453 82.5203C24.9844 82.3562 25.5703 82.6375 25.7344 83.2C25.8984 83.739 25.5937 84.325 25.0547 84.489Z" fill="#EDB7D5"/>
<path d="M26.5312 89.2L9.8906 94.4734C9.35154 94.6375 8.7656 94.3562 8.60154 93.7937C8.43748 93.2547 8.74217 92.6687 9.28123 92.5047L25.9219 87.2312C26.4609 87.0672 27.0469 87.3484 27.2109 87.9109C27.375 88.4265 27.0703 89.0125 26.5312 89.2Z" fill="#EDB7D5"/>
<path d="M18.8906 96.7702L11.3906 99.1374C10.8515 99.3015 10.2656 98.9968 10.1015 98.4577C9.93748 97.9187 10.2422 97.3327 10.7812 97.1687L18.2812 94.8015C18.8203 94.6374 19.4062 94.9421 19.5703 95.4812C19.7344 96.0202 19.4297 96.6062 18.8906 96.7702Z" fill="#EDB7D5"/>
<path opacity="0.1" d="M66.9143 54.3015C66.6331 53.1062 65.0393 52.8484 64.3831 53.9031L61.7581 58.1453L60.2815 51.9812C59.9768 50.739 58.7346 49.9656 57.4924 50.2703L40.5471 54.3015C39.3049 54.6062 38.5315 55.8484 38.8362 57.0906L42.8674 74.0359C43.1721 75.2781 44.4143 76.0515 45.6565 75.7468L62.6018 71.7156C63.844 71.4109 64.6174 70.1687 64.3127 68.9265L62.8362 62.7625L67.0784 65.3875C68.1331 66.0437 69.4456 65.0828 69.1409 63.8875L66.9143 54.3015Z" fill="#3F3F3F"/>
<path d="M66.3987 49.2859L63.5862 53.8562L62.0159 47.2468C61.6878 45.9109 60.3518 45.0906 59.0159 45.3953L40.8284 49.7312C39.4924 50.0593 38.6721 51.3953 38.9768 52.7312L43.3128 70.9187C43.6409 72.2547 44.9768 73.075 46.3128 72.7703L64.5003 68.4343C65.8362 68.1062 66.6565 66.7703 66.3518 65.4344L64.7815 58.825L69.3518 61.6375C70.4768 62.3406 71.8831 61.3093 71.5784 60.0203L69.1175 49.7312C68.8128 48.4422 67.1018 48.1609 66.3987 49.2859Z" fill="#E83B5B"/>
<path d="M49.4297 54.1843L56.0859 58.2625L51.9844 64.9187" fill="white"/>
<path d="M78.9434 80.5516L51.2856 84.9573L53.7742 100.58L81.4319 96.1742L78.9434 80.5516Z" fill="#E83C3B"/>
<path d="M66.3518 90.5828L78.9377 80.575L51.2815 84.9812L66.3518 90.5828Z" fill="#EE7375"/>
<path d="M84.5625 107.387H100.383C100.852 107.387 101.25 106.989 101.25 106.52C101.25 106.052 100.852 105.653 100.383 105.653H84.5625C84.0937 105.653 83.6953 106.052 83.6953 106.52C83.6953 107.012 84.0703 107.387 84.5625 107.387Z" fill="#E2E2E1"/>
<path d="M89.7891 103.708L89.0391 99.1375L91.1016 98.5046L91.4297 103.38L89.7891 103.708Z" fill="#D7DDE9"/>
<path d="M91.5 102.887C91.6406 102.911 91.7578 102.958 91.875 103.051C92.6016 103.661 94.8281 104.739 95.9531 104.903C97.1719 105.09 97.2422 105.676 95.5078 105.676C93.7969 105.676 92.5312 105.512 91.7812 105.536C91.0078 105.559 91.2187 105.676 89.3437 105.676C87.8906 105.676 88.3594 103.825 88.875 102.981C89.0391 102.723 89.25 102.583 89.5547 102.606L91.5 102.887Z" fill="#ED9558"/>
<path d="M83.1562 99.4421L86.0156 95.8093L87.8672 96.9109L84.5156 100.427L83.1562 99.4421Z" fill="#D7DDE9"/>
<path d="M84.9374 100.145C85.0078 100.262 85.0781 100.38 85.0781 100.52C85.1249 101.458 85.8515 103.895 86.7187 104.669C87.5859 105.466 87.0234 105.653 85.6171 104.997C84.0703 104.27 83.7187 102.7 83.1796 102.161C82.6406 101.622 82.6874 101.833 81.4218 100.45C80.4374 99.3953 82.1015 98.4812 83.0859 98.2703C83.3906 98.2 83.6249 98.2703 83.8124 98.5281L84.9374 100.145Z" fill="#ED9558"/>
<path d="M81.8671 22.1921C81.8671 22.1921 81.3046 25.9421 82.3828 27.6765C83.4609 29.4109 83.6249 29.6687 83.6249 29.6687" fill="#ED8C61"/>
<path d="M84.6329 31.3329C84.3282 31.5204 83.9767 31.6141 83.6485 31.6141C82.9923 31.6141 82.336 31.286 81.9845 30.6532C81.961 30.6297 81.7735 30.3016 80.7657 28.7079C80.0626 27.5829 79.8282 26.0594 79.8048 24.7235C79.7579 23.411 79.8985 22.286 79.9688 21.911C80.1329 20.8563 81.1173 20.1063 82.1954 20.2703C83.2501 20.4344 84.0001 21.4188 83.836 22.4969C83.7423 23.0594 83.7188 23.7157 83.7188 24.325C83.7188 24.9579 83.7657 25.5672 83.8595 26.0125C83.9063 26.2704 83.9767 26.5047 84.0704 26.6454C85.172 28.4032 85.336 28.6844 85.336 28.6844C85.8751 29.5985 85.5704 30.7938 84.6329 31.3329Z" fill="#F6AD86"/>
<path d="M77.4376 52.8018C77.836 47.2002 75.961 33.3018 75.0001 27.7705C74.8594 26.9268 75.4923 26.1533 76.3594 26.1533H87.8673C88.4766 26.1533 89.0391 26.5752 89.2032 27.1611C90.5157 32.1768 91.3595 52.7783 91.3595 52.7783H77.4376V52.8018Z" fill="#E8E8E8"/>
<path d="M96.4454 41.1532C96.2579 40.0986 94.9688 37.4032 93.5391 34.5907C92.0157 31.6142 90.3047 28.4736 89.5079 27.0673C89.0626 26.2704 88.0547 25.9892 87.2579 26.4111C86.461 26.8564 86.1797 27.8642 86.6016 28.6611C87.8204 30.8642 89.0626 33.1845 90.1641 35.2704C91.4063 37.6611 92.6016 39.1142 93.0938 40.2861C92.2032 41.0595 89.9766 41.1298 88.2188 41.0126C87.7266 40.9657 85.8516 40.8251 84.6094 41.9736C84.1172 42.4189 83.5547 43.2392 83.6016 44.5282C83.6485 45.4189 83.7657 45.7704 84.5626 46.1689C84.8907 46.3329 85.3126 46.3564 85.6641 46.3329C86.5782 46.2157 86.6485 45.7236 86.6485 44.6689C86.6485 43.9189 87.0469 43.1689 87.0469 43.1689C87.0469 43.1689 89.7188 43.8251 91.9454 44.1064C94.1719 44.3876 95.086 43.9423 95.9063 43.0282C96.375 42.4892 96.5625 41.8095 96.4454 41.1532Z" fill="#F6AD86"/>
<path d="M78.0469 61.8486C78.0469 61.8486 76.3594 58.7549 77.4376 52.8018H91.336C91.336 52.8018 91.5235 57.3252 91.2188 61.8486H78.0469Z" fill="#3A63A9"/>
<path d="M93.5154 34.5906L91.8982 34.9188L90.1639 35.2703C89.0858 33.1844 87.8201 30.8406 86.6014 28.6609C86.1561 27.8641 86.4607 26.8563 87.2576 26.4109C88.0545 25.9656 89.0623 26.2703 89.5076 27.0672C90.2811 28.4734 91.992 31.6141 93.5154 34.5906Z" fill="#ED8C61"/>
<path d="M77.8828 27.4657C77.6719 26.5751 76.7578 26.036 75.8906 26.2704C71.9063 27.2548 69.1406 28.1454 67.2188 28.9657C62.7891 30.8407 62.836 32.2235 62.836 32.9267C62.8594 33.7235 63.0235 35.2938 72.5625 38.7626C72.5625 39.0438 72.2578 40.122 72.0703 40.4735C71.625 41.2704 72.0938 42.0438 72.5625 42.8173C72.7266 43.0751 73.1016 43.4032 73.5469 43.4032C74.1328 43.4032 74.8594 42.6532 74.9531 42.0438C75.3047 39.8173 75.2578 38.5048 75.1406 38.247C75.1406 38.2235 75.1172 38.2001 75.1172 38.1767C75.0703 38.1063 75.0469 38.036 75 37.9657C74.9766 37.9188 74.9297 37.8954 74.9063 37.8485C74.8594 37.8017 74.836 37.7548 74.7891 37.7313C74.7188 37.661 74.6485 37.6142 74.5781 37.5673C74.5547 37.5673 74.5547 37.5438 74.5313 37.5438C74.4141 37.4735 74.2969 37.4032 74.1797 37.3563C70.9453 36.0204 67.9219 33.8642 66.586 32.9267C67.0547 32.6688 67.711 32.3407 68.5313 32.036C70.5703 31.2157 73.5703 30.2548 76.6406 29.5048C77.5547 29.247 78.0938 28.3563 77.8828 27.4657Z" fill="#F6AD86"/>
<path d="M93.7734 33.8641L91.5468 34.286L89.8125 34.6141L88.3359 34.8953C86.4375 31.1688 85.9922 30.325 85.9218 29.0594C85.8515 27.6297 86.2265 26.9031 87.164 26.3875C88.1015 25.8719 89.2734 26.2 89.789 27.1375C89.8359 27.2078 91.8515 30.0907 93.7734 33.8641Z" fill="#E8E8E8"/>
<path d="M99.8206 80.2236C99.6096 81.583 98.8831 83.0596 97.8518 84.8642C96.1174 87.8643 93.469 91.2158 91.0784 94.0049C89.4143 95.9502 87.8909 97.6377 86.9299 98.7861C86.5081 99.2783 86.1799 99.6768 85.9924 99.9346L84.0237 97.4033C84.7502 96.3721 85.4299 94.9892 86.2737 93.7002C86.2971 93.6767 86.3206 93.6299 86.344 93.6064C87.9377 91.1924 89.6487 88.4736 91.0081 85.9892C91.0549 85.8955 91.1018 85.8252 91.1487 85.7314C92.6018 83.1064 93.6799 80.7861 93.8909 79.4267C94.2659 77.0127 90.6331 69.4658 87.0471 62.8096C86.6487 62.0361 86.2268 61.2861 85.8284 60.5595C85.6877 60.3017 85.6174 60.0439 85.594 59.7627C85.5002 58.5439 86.3909 57.1377 87.4924 56.5283C88.8284 55.7783 90.5628 55.4033 91.3128 56.7392C92.8362 59.5049 100.735 74.2939 99.8206 80.2236Z" fill="#3A63A9"/>
<path d="M91.0779 94.0046C89.4138 95.95 87.8904 97.6375 86.9294 98.7859C86.7654 97.4265 86.6013 95.95 86.4373 94.45C86.4138 94.1687 86.3669 93.864 86.3435 93.5828C87.9373 91.1687 89.6482 88.45 91.0076 85.9656C91.1013 88.4265 91.1013 91.3093 91.0779 94.0046Z" fill="#2D548D"/>
<path d="M90.7265 80.9735C90.0468 75.4188 85.3828 60.4891 84.6562 58.8485C84.0468 57.4422 80.6718 57.1376 79.2656 57.7704C77.8593 58.3797 77.2265 60.0204 77.8359 61.4266C79.7109 65.6923 85.0312 77.1063 85.5703 81.1376C85.875 83.5516 86.2968 88.4032 87.0468 92.5516C87.5859 95.4344 88.125 98.2469 88.5234 100.286C88.875 102.067 88.875 101.739 88.8984 101.903L92.2265 101.388C92.2265 101.388 91.5234 87.536 90.7265 80.9735Z" fill="#3A63A9"/>
<path d="M76.6641 29.4579C73.5938 30.2079 70.5937 31.1688 68.5547 31.9891L67.1953 28.9422C69.1172 28.1454 71.8828 27.2313 75.8672 26.2469C76.7578 26.036 77.6484 26.575 77.8594 27.4422C78.0938 28.3563 77.5547 29.2469 76.6641 29.4579Z" fill="#ED8C61"/>
<path d="M75.9143 26.2002C76.969 26.0361 77.7424 26.5517 78.0237 27.583C78.3049 28.6142 77.6018 29.4111 76.6643 29.9502C75.5393 30.6064 75.1409 30.747 70.3831 32.3877L67.7346 28.7314C73.8284 26.3642 74.133 26.458 75.9143 26.2002Z" fill="#E8E8E8"/>
<path d="M83.836 26.0125C83.7423 26.0125 83.6485 26.0125 83.5782 26.0125C82.1485 26.0125 80.836 25.5438 79.8048 24.7235C79.7579 23.411 79.8985 22.286 79.9688 21.911C80.1329 20.8563 81.1173 20.1063 82.1954 20.2703C83.2501 20.4344 84.0001 21.4188 83.836 22.4969C83.7423 23.0594 83.7189 23.7157 83.7189 24.325C83.672 24.9344 83.7189 25.5438 83.836 26.0125Z" fill="#ED8C61"/>
<path d="M89.3439 19.0751C88.5704 22.661 86.5783 25.286 83.1329 25.286C79.7111 25.286 77.5548 22.6845 76.922 19.0751C76.3595 15.7001 79.7111 12.3954 83.1329 12.3954C86.6017 12.3719 90.0704 15.7235 89.3439 19.0751Z" fill="#F6AD86"/>
<path d="M89.8127 101.927L89.7893 101.833C88.8518 96.0203 87.4221 87.2546 86.719 81.7234C86.2033 77.6921 81.2111 65.739 79.3361 61.4734C79.3127 61.4499 79.3127 61.4031 79.3127 61.3796C79.3127 61.3562 79.3127 61.3562 79.2893 61.3328C78.9846 60.5125 78.0705 57.4656 78.9377 52.6609L79.2189 52.7078C78.3518 57.4421 79.2658 60.4187 79.5471 61.239C79.5471 61.2624 79.5705 61.2859 79.5705 61.3093C79.5705 61.3328 79.5705 61.3562 79.5939 61.3796C81.469 65.6453 86.4611 77.6453 86.9768 81.6999C87.7033 87.2078 89.1096 95.9968 90.0471 101.809L90.0705 101.903L89.8127 101.927Z" fill="#658BC1"/>
<path d="M85.3594 26.1765C85.3594 27.0203 85.0312 28.4265 82.8281 28.4265C81.2344 28.4265 79.2187 27.7468 78.4687 26.4578L78.3047 26.1765H85.3594V26.1765Z" fill="#C8D6DB"/>
<path d="M78.9607 26.1765C79.5466 27.2078 81.3044 27.864 82.8279 27.864C84.3513 27.864 84.7966 27.114 84.7966 26.1765H78.9607Z" fill="#F6AD86"/>
<path d="M87.3047 43.4968C87.3047 43.4734 87.3984 42.5359 86.4141 41.1765L87.3281 40.6375C88.4766 42.3484 88.3594 43.5671 88.3594 43.6375L87.3047 43.4968Z" fill="#82AACE"/>
<path d="M86.6014 40.661C87.1171 40.4266 87.7967 40.5438 88.1483 40.9188C88.4764 41.2938 88.3358 41.8094 87.7967 42.0438C87.2811 42.2781 86.6014 42.161 86.2499 41.786C85.9217 41.3875 86.0624 40.8953 86.6014 40.661Z" fill="#4E7DB0"/>
<path d="M89.2032 14.4812C87.3282 11.4578 82.711 11.2234 81.8204 11.2703C81.3516 11.2937 80.3203 11.575 79.875 12.2781C79.8516 11.7859 79.875 11.3406 79.875 11.3406C79.4766 11.8328 79.4063 12.2546 79.4766 12.5828C79.1954 12.2078 79.0079 11.8093 79.0079 11.8093C78.9375 12.325 79.0782 12.6296 79.2891 12.7937C78.0235 13.0984 76.4063 14.8796 76.9688 18.5359C77.2032 20.1296 80.8125 18.9109 81.8204 17.3171C82.5 18.4187 83.8594 18.6531 83.8594 18.6531C83.3907 18.1843 82.9688 17.4812 82.6407 16.7781C84.5625 17.95 87.1172 19.2156 87.4219 19.989C87.4219 19.989 87.9844 18.7468 87.5625 17.95C87.5625 17.95 89.086 18.325 89.2735 19.8484C89.25 19.8015 91.1953 17.7156 89.2032 14.4812Z" fill="#424344"/>
<path d="M84.7149 52.6534L84.4373 52.6982L85.955 62.0921L86.2327 62.0472L84.7149 52.6534Z" fill="#658BC1"/>
<path d="M85.8044 60.3015L85.7576 60.0203C85.7576 60.0203 86.3435 59.9265 86.6482 59.4812C86.8357 59.2234 86.8826 58.8953 86.8357 58.5203L85.8748 52.5671L86.156 52.5203L87.1169 58.4734C87.1873 58.9421 87.1169 59.3406 86.8826 59.6453C86.5076 60.2078 85.8279 60.3015 85.8044 60.3015Z" fill="#658BC1"/>
<path d="M76.7345 18.6999C76.4532 19.3093 76.5001 19.9656 76.7579 20.5281C77.0626 21.1843 78.0236 21.1374 78.3048 20.4812L79.1017 18.6999C79.4064 18.0437 78.797 17.3171 78.0939 17.5046C77.5079 17.6921 76.9923 18.114 76.7345 18.6999Z" fill="#F6AD86"/>
<defs>
<linearGradient id="paint0_linear_302_173" x1="112.314" y1="108.712" x2="-6.59303" y2="-0.521769" gradientUnits="userSpaceOnUse">
<stop stop-color="#6FC7DA"/>
<stop offset="0.3693" stop-color="#0D71B9"/>
<stop offset="0.7613" stop-color="#9E1460"/>
<stop offset="1" stop-color="#E7267A"/>
</linearGradient>
<linearGradient id="paint1_linear_302_173" x1="62.2984" y1="42.955" x2="10.7442" y2="-11.7273" gradientUnits="userSpaceOnUse">
<stop stop-color="#6FC7DA"/>
<stop offset="1" stop-color="#9E1460"/>
</linearGradient>
<linearGradient id="paint2_linear_302_173" x1="37.7701" y1="93.643" x2="8.43933" y2="90.4349" gradientUnits="userSpaceOnUse">
<stop stop-color="#6FC7DA"/>
<stop offset="0.6927" stop-color="#9E1460"/>
<stop offset="1" stop-color="#E7267A"/>
</linearGradient>
</defs>
</svg>
