<svg width="120" height="121" viewBox="0 0 120 121" fill="none" xmlns="http://www.w3.org/2000/svg">
<path d="M44.9299 24.0638C42.5862 25.0481 33.5158 28.8216 28.4533 38.595C27.3752 40.681 22.3127 50.4544 26.0393 59.0794C30.9846 70.5169 46.0315 67.7278 52.9455 78.4856C58.8752 87.7435 46.5705 96.8372 51.8674 107.853C54.633 113.595 61.008 118.4 66.8908 118.845C85.2893 120.228 118.336 80.595 104.906 49.4935C95.1096 26.8997 63.8908 16.1653 44.9299 24.0638Z" fill="url(#paint0_linear_302_197)"/>
<path d="M82.4296 41.8292L48.5624 29.2667C47.5311 28.8917 46.4061 29.4073 46.0311 30.4386L23.1561 92.0089C22.7811 93.0401 23.2967 94.1651 24.328 94.5401L58.1952 107.103C59.2264 107.478 60.3514 106.962 60.7264 105.931L83.6014 44.337C83.9764 43.3292 83.4608 42.2042 82.4296 41.8292Z" fill="#2D548D"/>
<path opacity="0.09" d="M62.1328 73.3762C61.289 73.3762 60.4218 73.3527 59.5312 73.3059C46.3828 72.5793 35.6484 66.7199 30.8203 57.6496C23.1093 43.1652 30.6796 22.9856 42.2812 16.634C48.1406 13.3996 53.2265 13.4934 56.4609 14.1496C61.9921 15.2512 66.0703 17.8059 67.9453 21.3215C69.9609 25.0949 68.8828 28.634 67.7343 32.3606C66.7031 35.7121 65.6484 39.1574 66.914 42.884C68.039 46.2121 70.9687 47.2434 74.0859 48.3449C77.2499 49.4699 80.5312 50.6184 82.289 54.2512C84.1406 58.0949 83.9062 63.3449 81.7734 66.509C78.8671 70.7277 71.1796 73.3762 62.1328 73.3762ZM52.8046 14.0559C49.9218 14.0559 46.3359 14.7121 42.4218 16.8684C30.9374 23.1731 23.4375 43.1887 31.0781 57.5324C35.8593 66.5324 46.5234 72.3215 59.5781 73.048C69.6093 73.6105 78.4453 70.9152 81.5624 66.3684C83.6484 63.298 83.8828 58.1418 82.0546 54.3918C80.3437 50.8527 77.1328 49.7277 74.0156 48.6262C70.8515 47.5012 67.8515 46.4465 66.6796 43.0012C65.3906 39.1809 66.4687 35.6887 67.4999 32.2902C68.6249 28.6106 69.7031 25.1184 67.7343 21.4387C65.9062 17.9934 61.8749 15.4856 56.4374 14.4074C55.3828 14.1965 54.164 14.0559 52.8046 14.0559Z" fill="#AAAAD5"/>
<path opacity="0.2" d="M74.2266 38.7825L70.4766 41.2903L37.7344 63.2747L32.5547 66.7668L39.6797 47.5247L44.8828 44.0325L56.625 36.134L60.375 33.6262L74.2266 38.7825Z" fill="#EEEDF3"/>
<path opacity="0.2" d="M81.6797 41.5481L77.9297 44.0559L33.8906 73.634L28.6875 77.1028L31.2187 70.3293L36.3984 66.8606V66.8372L73.0547 42.2512L76.8047 39.72L81.6797 41.5481Z" fill="#EEEDF3"/>
<path d="M82.4295 41.8292L81.6795 41.548L76.8045 39.7433L74.2264 38.7823L60.3748 33.6495L48.5623 29.2667C47.5545 28.8917 46.406 29.4073 46.031 30.4386L39.6795 47.548L32.531 66.7901L31.1951 70.3761L28.6873 77.1495L23.156 92.0558C23.0857 92.2433 23.0623 92.4308 23.0389 92.6183C22.9685 93.462 23.4842 94.2823 24.3279 94.587L30.6092 96.9308L35.3435 98.6886L47.8592 103.329L52.4295 105.017L58.1951 107.15C59.2029 107.525 60.3514 107.009 60.7264 106.001L83.1795 45.5323L83.6014 44.4073C83.9764 43.3292 83.4607 42.2042 82.4295 41.8292ZM79.2185 45.6495L78.7498 46.9386L59.4139 99.0401C59.2029 99.5792 58.5935 99.8839 58.031 99.673L53.7889 98.1026L48.656 96.2042L38.0623 92.2667L33.2107 90.462L29.3435 89.0323C28.9217 88.8683 28.6639 88.4933 28.6639 88.0714C28.6639 87.9308 28.6639 87.7901 28.7342 87.6495L33.9373 73.6573L36.4451 66.8839L37.781 63.298L44.9295 44.0558L48.5623 34.2823C48.7732 33.7433 49.3826 33.4386 49.9217 33.6495L56.6717 36.1573L70.5232 41.2901L73.1013 42.2511L77.9764 44.0558L78.6092 44.2901C79.1482 44.5011 79.4295 45.1105 79.2185 45.6495Z" fill="#EEEDF3"/>
<path d="M40.3122 98.2903C39.3513 97.9387 38.8591 96.8606 39.2107 95.8996C39.5622 94.9387 40.6404 94.4465 41.6013 94.7981C42.5622 95.1496 43.0544 96.2278 42.7029 97.1887C42.3279 98.1731 41.2497 98.6418 40.3122 98.2903Z" fill="#C9C7D9"/>
<path opacity="0.1" d="M62.9532 5.50131L15.6798 21.1576C14.5313 21.5326 13.922 22.7747 14.297 23.8997L18.8907 37.7279C19.2657 38.8763 20.5079 39.4857 21.6329 39.1107L26.297 37.5638L28.5704 36.8138C29.1563 37.1888 30.6095 38.1732 31.1954 38.5247C31.7345 38.8294 32.4376 38.5951 32.6954 38.0326C32.9766 37.3997 33.5626 35.7591 33.797 35.1029L45.2813 31.2826L68.9063 23.4544C70.0548 23.0794 70.6641 21.8372 70.2891 20.7122L65.6954 6.88412C65.3204 5.73568 64.1016 5.12631 62.9532 5.50131Z" fill="#3F3F3F"/>
<path d="M62.9531 1.84496L12.2344 18.6497C11.0156 19.0481 10.3594 20.384 10.7578 21.6028L15.6797 36.4387C16.0781 37.6575 17.4141 38.3137 18.6328 37.9153L23.625 36.2512L26.0625 35.4543C26.6719 35.8762 28.2422 36.9075 28.875 37.2825C29.4375 37.6106 30.2109 37.3528 30.4922 36.7434C30.7734 36.0637 31.4297 34.2825 31.6641 33.6028L43.9922 29.5246L69.3515 21.1106C70.5703 20.7122 71.2265 19.3762 70.8281 18.1575L65.9062 3.32153C65.5078 2.10278 64.1953 1.44653 62.9531 1.84496Z" fill="url(#paint1_linear_302_197)"/>
<path d="M25.0779 25.6105C25.4295 25.0012 25.5233 24.2512 25.2889 23.5246L24.8904 22.3293C24.4451 20.9933 23.0389 20.173 21.6795 20.5715C20.2733 20.9933 19.5233 22.4699 19.9686 23.8527L20.3904 25.1652C20.6248 25.8918 21.1639 26.4308 21.7967 26.7121C20.3436 27.8136 19.4998 29.5715 19.617 31.423C19.6639 32.1496 20.3904 32.5949 21.0701 32.384L28.992 29.759C29.6717 29.5246 29.9764 28.7277 29.6014 28.1183C28.617 26.5246 26.9061 25.6105 25.0779 25.6105Z" fill="white"/>
<path d="M44.1563 13.0949L34.0548 16.4465C33.2344 16.7278 32.7891 17.6184 33.0469 18.4387L34.6876 23.4074C34.9688 24.2278 35.8594 24.6731 36.6798 24.4153L37.6641 24.0871C37.6641 24.0871 39.5391 25.3528 40.1719 25.7278C40.6407 25.9856 41.2735 25.7981 41.4844 25.2824C41.7891 24.6028 42.5391 22.4699 42.5391 22.4699L46.7813 21.0637C47.6016 20.7824 48.0469 19.8918 47.7891 19.0715L46.1485 14.1028C45.8672 13.259 44.9766 12.8137 44.1563 13.0949Z" fill="white"/>
<path d="M35.8125 18.7434C35.4843 18.8137 35.1328 18.6496 35.039 18.3215C34.9218 17.9699 35.1093 17.5949 35.4609 17.5012L43.664 14.7824C43.9922 14.6652 44.3906 14.8527 44.4843 15.2043C44.6015 15.5559 44.414 15.9309 44.0625 16.0246L35.8593 18.7434C35.8359 18.7434 35.8359 18.7434 35.8125 18.7434Z" fill="#E2E1E1"/>
<path d="M36.5156 20.8996C36.1875 20.9699 35.8359 20.8059 35.7422 20.4777C35.625 20.1262 35.8125 19.7512 36.164 19.6574L44.3672 16.9387C44.6953 16.8215 45.0937 17.009 45.1875 17.3606C45.3047 17.7121 45.1171 18.0871 44.7656 18.1809L36.5625 20.8996C36.5625 20.8762 36.539 20.8996 36.5156 20.8996Z" fill="#E2E1E1"/>
<path d="M37.2424 23.0324C36.9143 23.1027 36.5627 22.9387 36.469 22.6106C36.3518 22.259 36.5393 21.884 36.8908 21.7902L40.594 20.5715C40.9221 20.4543 41.2971 20.6418 41.4143 20.9934C41.5315 21.3449 41.344 21.7199 40.9924 21.8137L37.2893 23.0324C37.2658 23.0324 37.2658 23.0324 37.2424 23.0324Z" fill="#E2E1E1"/>
<path d="M65.2032 15.4387C64.8751 14.4309 64.2188 13.5871 63.4219 13.0246L63.0704 11.9465C62.461 10.1418 60.6797 9.08712 58.8516 9.34494L58.7579 9.04025C58.6407 8.68869 58.2657 8.50119 57.9141 8.61837C57.5625 8.73556 57.375 9.11056 57.4922 9.46212L57.586 9.76681C55.9688 10.634 55.1719 12.5559 55.7579 14.3606L56.1094 15.4387C55.8047 16.3762 55.7813 17.4309 56.1094 18.4387L56.2735 18.9074C56.3438 19.1418 56.6016 19.2824 56.836 19.1887L58.6407 18.5793C58.6641 18.7199 58.7344 18.8606 58.8985 18.9074C59.6485 19.1652 60.4922 19.1652 61.3125 18.9074C62.1329 18.6496 62.7891 18.134 63.2579 17.4777C63.3516 17.3371 63.3516 17.1731 63.2813 17.0559L65.086 16.4465C65.3204 16.3762 65.461 16.1184 65.3672 15.884L65.2032 15.4387Z" fill="white"/>
<path d="M57.5158 18.4152C57.8673 19.4699 57.2814 20.6418 56.2267 20.9934C55.172 21.3449 54.0002 20.759 53.6486 19.7043C53.297 18.6496 53.883 17.4777 54.9377 17.1262C56.0158 16.7746 57.1642 17.3371 57.5158 18.4152Z" fill="#E83C3B"/>
<path opacity="0.1" d="M113.953 45.3218L100.992 43.7749C100.43 43.7046 99.9375 44.103 99.8672 44.6655L98.3203 57.6265C98.25 58.189 98.6484 58.6812 99.2109 58.7515L112.172 60.2983C112.734 60.3686 113.227 59.9702 113.297 59.4077L114.844 46.4468C114.914 45.9077 114.516 45.3921 113.953 45.3218Z" fill="#3F3F3F"/>
<path d="M115.476 58.4935L100.336 56.6888C100.078 56.6654 99.8905 56.431 99.9374 56.1732L101.742 41.0326C101.766 40.7748 102 40.5873 102.258 40.6342L117.398 42.4388C117.656 42.4623 117.844 42.6967 117.797 42.9545L115.992 58.0951C115.969 58.3295 115.734 58.517 115.476 58.4935Z" fill="#F8AA09"/>
<path d="M101.555 55.0249L103.055 42.4858C103.078 42.3218 103.219 42.228 103.359 42.228L115.898 43.728C116.063 43.7515 116.156 43.8921 116.156 44.0327L114.656 56.5718C114.633 56.7358 114.492 56.8296 114.352 56.8296L101.813 55.3296C101.648 55.3296 101.555 55.189 101.555 55.0249Z" fill="#FBBA38"/>
<path d="M109.172 50.6184L107.719 51.7669C107.461 51.9778 107.062 51.9309 106.851 51.6731C106.641 51.4153 106.266 51.3684 105.984 51.5794L103.851 53.2669C103.43 53.595 103.617 54.2981 104.156 54.3684L104.414 54.3919L109.453 55.0012L112.289 55.3294C112.828 55.3997 113.18 54.7669 112.851 54.345L110.039 50.7122C109.828 50.4544 109.43 50.4075 109.172 50.6184Z" fill="#EE9F05"/>
<path d="M106.57 48.181C106.5 48.7669 105.961 49.1888 105.375 49.1185C104.789 49.0482 104.367 48.5091 104.437 47.9232C104.508 47.3372 105.047 46.9154 105.633 46.9857C106.219 47.056 106.64 47.5951 106.57 48.181Z" fill="#EE9F05"/>
<path opacity="0.1" d="M32.0158 82.0949C31.5236 80.5245 29.8595 79.6574 28.2892 80.1495L9.1642 86.1964C7.59388 86.6886 6.7267 88.3527 7.21888 89.923L11.1564 102.368C11.6486 103.939 13.3126 104.806 14.8829 104.314L16.7579 103.728C16.7579 103.728 20.2501 106.142 21.4689 106.868C22.3361 107.384 23.5314 107.009 23.9533 106.071C24.5392 104.782 25.9923 100.798 25.9923 100.798L34.008 98.2667C35.5783 97.7745 36.4455 96.1105 35.9533 94.5402L32.0158 82.0949Z" fill="#3F3F3F"/>
<path d="M24.9844 77.3137L4.47659 83.8059C2.78909 84.345 1.87503 86.1262 2.39065 87.8137L6.6094 101.173C7.14846 102.861 8.92971 103.775 10.6172 103.259L12.6094 102.626C12.6094 102.626 16.3594 105.228 17.6485 106.001C18.586 106.564 19.875 106.142 20.3203 105.157C20.9532 103.775 22.5 99.4856 22.5 99.4856L31.1016 96.7668C32.7891 96.2278 33.7032 94.4465 33.1875 92.759L28.9688 79.3997C28.4766 77.7122 26.6719 76.7747 24.9844 77.3137Z" fill="url(#paint2_linear_302_197)"/>
<path d="M25.0547 84.2278L8.41404 89.5012C7.87498 89.6653 7.28904 89.384 7.12498 88.8215C6.96092 88.2825 7.2656 87.6965 7.80467 87.5325L24.4453 82.2591C24.9844 82.095 25.5703 82.3762 25.7344 82.9387C25.8984 83.4778 25.5937 84.0637 25.0547 84.2278Z" fill="#EDB7D5"/>
<path d="M26.5312 88.9387L9.8906 94.2122C9.35154 94.3762 8.7656 94.095 8.60154 93.5325C8.43748 92.9934 8.74217 92.4075 9.28123 92.2434L25.9219 86.97C26.4609 86.8059 27.0469 87.0872 27.2109 87.6497C27.375 88.1653 27.0703 88.7512 26.5312 88.9387Z" fill="#EDB7D5"/>
<path d="M18.8906 96.509L11.3906 98.8762C10.8515 99.0403 10.2656 98.7356 10.1015 98.1965C9.93748 97.6575 10.2422 97.0715 10.7812 96.9075L18.2812 94.5403C18.8203 94.3762 19.4062 94.6809 19.5703 95.2199C19.7344 95.759 19.4297 96.3449 18.8906 96.509Z" fill="#EDB7D5"/>
<path opacity="0.1" d="M66.9143 54.0403C66.6331 52.845 65.0393 52.5872 64.3831 53.6419L61.7581 57.884L60.2815 51.72C59.9768 50.4778 58.7346 49.7044 57.4924 50.009L40.5471 54.0403C39.3049 54.345 38.5315 55.5872 38.8362 56.8294L42.8674 73.7747C43.1721 75.0168 44.4143 75.7903 45.6565 75.4856L62.6018 71.4543C63.844 71.1497 64.6174 69.9075 64.3127 68.6653L62.8362 62.5012L67.0784 65.1262C68.1331 65.7825 69.4456 64.8215 69.1409 63.6262L66.9143 54.0403Z" fill="#3F3F3F"/>
<path d="M66.3987 49.0247L63.5862 53.595L62.0159 46.9856C61.6878 45.6497 60.3518 44.8294 59.0159 45.134L40.8284 49.47C39.4924 49.7981 38.6721 51.1341 38.9768 52.47L43.3128 70.6575C43.6409 71.9934 44.9768 72.8137 46.3128 72.5091L64.5003 68.1731C65.8362 67.845 66.6565 66.5091 66.3518 65.1731L64.7815 58.5637L69.3518 61.3762C70.4768 62.0794 71.8831 61.0481 71.5784 59.7591L69.1175 49.47C68.8128 48.1809 67.1018 47.8997 66.3987 49.0247Z" fill="#E83B5B"/>
<path d="M49.4297 53.9231L56.0859 58.0012L51.9844 64.6575" fill="white"/>
<path d="M78.9434 80.2904L51.2856 84.696L53.7742 100.319L81.4319 95.913L78.9434 80.2904Z" fill="#E83C3B"/>
<path d="M66.3518 90.3215L78.9377 80.3137L51.2815 84.72L66.3518 90.3215Z" fill="#EE7375"/>
<path d="M84.5625 107.126H100.383C100.852 107.126 101.25 106.728 101.25 106.259C101.25 105.79 100.852 105.392 100.383 105.392H84.5625C84.0937 105.392 83.6953 105.79 83.6953 106.259C83.6953 106.751 84.0703 107.126 84.5625 107.126Z" fill="#E2E2E1"/>
<path d="M89.7891 103.447L89.0391 98.8762L91.1016 98.2434L91.4297 103.118L89.7891 103.447Z" fill="#D7DDE9"/>
<path d="M91.5 102.626C91.6406 102.65 91.7578 102.696 91.875 102.79C92.6016 103.4 94.8281 104.478 95.9531 104.642C97.1719 104.829 97.2422 105.415 95.5078 105.415C93.7969 105.415 92.5312 105.251 91.7812 105.275C91.0078 105.298 91.2187 105.415 89.3437 105.415C87.8906 105.415 88.3594 103.564 88.875 102.72C89.0391 102.462 89.25 102.321 89.5547 102.345L91.5 102.626Z" fill="#ED9558"/>
<path d="M83.1562 99.1809L86.0156 95.5481L87.8672 96.6497L84.5156 100.165L83.1562 99.1809Z" fill="#D7DDE9"/>
<path d="M84.9374 99.8841C85.0078 100.001 85.0781 100.118 85.0781 100.259C85.1249 101.197 85.8515 103.634 86.7187 104.408C87.5859 105.204 87.0234 105.392 85.6171 104.736C84.0703 104.009 83.7187 102.439 83.1796 101.9C82.6406 101.361 82.6874 101.572 81.4218 100.189C80.4374 99.1341 82.1015 98.22 83.0859 98.0091C83.3906 97.9388 83.6249 98.0091 83.8124 98.2669L84.9374 99.8841Z" fill="#ED9558"/>
<path d="M81.8671 21.9309C81.8671 21.9309 81.3046 25.6809 82.3828 27.4153C83.4609 29.1497 83.6249 29.4075 83.6249 29.4075" fill="#ED8C61"/>
<path d="M84.6329 31.0716C84.3282 31.2591 83.9767 31.3529 83.6485 31.3529C82.9923 31.3529 82.336 31.0247 81.9845 30.3919C81.961 30.3685 81.7735 30.0404 80.7657 28.4466C80.0626 27.3216 79.8282 25.7982 79.8048 24.4622C79.7579 23.1497 79.8985 22.0247 79.9688 21.6497C80.1329 20.5951 81.1173 19.8451 82.1954 20.0091C83.2501 20.1732 84.0001 21.1576 83.836 22.2357C83.7423 22.7982 83.7188 23.4544 83.7188 24.0638C83.7188 24.6966 83.7657 25.306 83.8595 25.7513C83.9063 26.0091 83.9767 26.2435 84.0704 26.3841C85.172 28.1419 85.336 28.4232 85.336 28.4232C85.8751 29.3372 85.5704 30.5326 84.6329 31.0716Z" fill="#F6AD86"/>
<path d="M77.4376 52.5405C77.836 46.939 75.961 33.0405 75.0001 27.5093C74.8594 26.6655 75.4923 25.8921 76.3594 25.8921H87.8673C88.4766 25.8921 89.0391 26.314 89.2032 26.8999C90.5157 31.9155 91.3595 52.5171 91.3595 52.5171H77.4376V52.5405Z" fill="#E8E8E8"/>
<path d="M96.4454 40.892C96.2579 39.8373 94.9688 37.142 93.5391 34.3295C92.0157 31.353 90.3047 28.2123 89.5079 26.8061C89.0626 26.0092 88.0547 25.728 87.2579 26.1498C86.461 26.5951 86.1797 27.603 86.6016 28.3998C87.8204 30.603 89.0626 32.9233 90.1641 35.0092C91.4063 37.3998 92.6016 38.853 93.0938 40.0248C92.2032 40.7983 89.9766 40.8686 88.2188 40.7514C87.7266 40.7045 85.8516 40.5639 84.6094 41.7123C84.1172 42.1576 83.5547 42.978 83.6016 44.267C83.6485 45.1576 83.7657 45.5092 84.5626 45.9076C84.8907 46.0717 85.3126 46.0951 85.6641 46.0717C86.5782 45.9545 86.6485 45.4623 86.6485 44.4076C86.6485 43.6576 87.0469 42.9076 87.0469 42.9076C87.0469 42.9076 89.7188 43.5639 91.9454 43.8451C94.1719 44.1264 95.086 43.6811 95.9063 42.767C96.375 42.228 96.5625 41.5483 96.4454 40.892Z" fill="#F6AD86"/>
<path d="M78.0469 61.5874C78.0469 61.5874 76.3594 58.4937 77.4376 52.5405H91.336C91.336 52.5405 91.5235 57.064 91.2188 61.5874H78.0469Z" fill="#3A63A9"/>
<path d="M93.5154 34.3294L91.8982 34.6575L90.1639 35.0091C89.0858 32.9232 87.8201 30.5794 86.6014 28.3997C86.1561 27.6028 86.4607 26.595 87.2576 26.1497C88.0545 25.7044 89.0623 26.0091 89.5076 26.806C90.2811 28.2122 91.992 31.3528 93.5154 34.3294Z" fill="#ED8C61"/>
<path d="M77.8828 27.2045C77.6719 26.3139 76.7578 25.7748 75.8906 26.0092C71.9063 26.9936 69.1406 27.8842 67.2188 28.7045C62.7891 30.5795 62.836 31.9623 62.836 32.6654C62.8594 33.4623 63.0235 35.0326 72.5625 38.5014C72.5625 38.7826 72.2578 39.8607 72.0703 40.2123C71.625 41.0092 72.0938 41.7826 72.5625 42.5561C72.7266 42.8139 73.1016 43.142 73.5469 43.142C74.1328 43.142 74.8594 42.392 74.9531 41.7826C75.3047 39.5561 75.2578 38.2436 75.1406 37.9857C75.1406 37.9623 75.1172 37.9389 75.1172 37.9154C75.0703 37.8451 75.0469 37.7748 75 37.7045C74.9766 37.6576 74.9297 37.6342 74.9063 37.5873C74.8594 37.5404 74.836 37.4936 74.7891 37.4701C74.7188 37.3998 74.6485 37.3529 74.5781 37.3061C74.5547 37.3061 74.5547 37.2826 74.5313 37.2826C74.4141 37.2123 74.2969 37.142 74.1797 37.0951C70.9453 35.7592 67.9219 33.6029 66.586 32.6654C67.0547 32.4076 67.711 32.0795 68.5313 31.7748C70.5703 30.9545 73.5703 29.9936 76.6406 29.2436C77.5547 28.9857 78.0938 28.0951 77.8828 27.2045Z" fill="#F6AD86"/>
<path d="M93.7734 33.6029L91.5468 34.0247L89.8125 34.3529L88.3359 34.6341C86.4375 30.9075 85.9922 30.0638 85.9218 28.7982C85.8515 27.3685 86.2265 26.6419 87.164 26.1263C88.1015 25.6107 89.2734 25.9388 89.789 26.8763C89.8359 26.9466 91.8515 29.8294 93.7734 33.6029Z" fill="#E8E8E8"/>
<path d="M99.8206 79.9624C99.6096 81.3218 98.8831 82.7983 97.8518 84.603C96.1174 87.603 93.469 90.9546 91.0784 93.7436C89.4143 95.689 87.8909 97.3765 86.9299 98.5249C86.5081 99.0171 86.1799 99.4155 85.9924 99.6733L84.0237 97.1421C84.7502 96.1108 85.4299 94.728 86.2737 93.439C86.2971 93.4155 86.3206 93.3686 86.344 93.3452C87.9377 90.9311 89.6487 88.2124 91.0081 85.728C91.0549 85.6343 91.1018 85.564 91.1487 85.4702C92.6018 82.8452 93.6799 80.5249 93.8909 79.1655C94.2659 76.7515 90.6331 69.2046 87.0471 62.5483C86.6487 61.7749 86.2268 61.0249 85.8284 60.2983C85.6877 60.0405 85.6174 59.7827 85.594 59.5014C85.5002 58.2827 86.3909 56.8764 87.4924 56.2671C88.8284 55.5171 90.5628 55.1421 91.3128 56.478C92.8362 59.2436 100.735 74.0327 99.8206 79.9624Z" fill="#3A63A9"/>
<path d="M91.0779 93.7434C89.4138 95.6887 87.8904 97.3762 86.9294 98.5247C86.7654 97.1653 86.6013 95.6887 86.4373 94.1887C86.4138 93.9075 86.3669 93.6028 86.3435 93.3215C87.9373 90.9075 89.6482 88.1887 91.0076 85.7043C91.1013 88.1653 91.1013 91.0481 91.0779 93.7434Z" fill="#2D548D"/>
<path d="M90.7265 80.7123C90.0468 75.1576 85.3828 60.2279 84.6562 58.5873C84.0468 57.181 80.6718 56.8763 79.2656 57.5091C77.8593 58.1185 77.2265 59.7591 77.8359 61.1654C79.7109 65.431 85.0312 76.8451 85.5703 80.8763C85.875 83.2904 86.2968 88.142 87.0468 92.2904C87.5859 95.1732 88.125 97.9857 88.5234 100.025C88.875 101.806 88.875 101.478 88.8984 101.642L92.2265 101.126C92.2265 101.126 91.5234 87.2748 90.7265 80.7123Z" fill="#3A63A9"/>
<path d="M76.6641 29.1966C73.5938 29.9466 70.5937 30.9076 68.5547 31.7279L67.1953 28.681C69.1172 27.8841 71.8828 26.9701 75.8672 25.9857C76.7578 25.7747 77.6484 26.3138 77.8594 27.181C78.0938 28.0951 77.5547 28.9857 76.6641 29.1966Z" fill="#ED8C61"/>
<path d="M75.9143 25.9389C76.969 25.7749 77.7424 26.2905 78.0237 27.3217C78.3049 28.353 77.6018 29.1499 76.6643 29.6889C75.5393 30.3452 75.1409 30.4858 70.3831 32.1264L67.7346 28.4702C73.8284 26.103 74.133 26.1967 75.9143 25.9389Z" fill="#E8E8E8"/>
<path d="M83.836 25.7513C83.7423 25.7513 83.6485 25.7513 83.5782 25.7513C82.1485 25.7513 80.836 25.2826 79.8048 24.4622C79.7579 23.1497 79.8985 22.0247 79.9688 21.6497C80.1329 20.5951 81.1173 19.8451 82.1954 20.0091C83.2501 20.1732 84.0001 21.1576 83.836 22.2357C83.7423 22.7982 83.7189 23.4544 83.7189 24.0638C83.672 24.6732 83.7189 25.2826 83.836 25.7513Z" fill="#ED8C61"/>
<path d="M89.3439 18.8138C88.5704 22.3998 86.5783 25.0248 83.1329 25.0248C79.7111 25.0248 77.5548 22.4232 76.922 18.8138C76.3595 15.4388 79.7111 12.1342 83.1329 12.1342C86.6017 12.1107 90.0704 15.4623 89.3439 18.8138Z" fill="#F6AD86"/>
<path d="M89.8127 101.665L89.7893 101.572C88.8518 95.759 87.4221 86.9934 86.719 81.4622C86.2033 77.4309 81.2111 65.4778 79.3361 61.2122C79.3127 61.1887 79.3127 61.1418 79.3127 61.1184C79.3127 61.095 79.3127 61.095 79.2893 61.0715C78.9846 60.2512 78.0705 57.2043 78.9377 52.3997L79.2189 52.4465C78.3518 57.1809 79.2658 60.1575 79.5471 60.9778C79.5471 61.0012 79.5705 61.0247 79.5705 61.0481C79.5705 61.0715 79.5705 61.095 79.5939 61.1184C81.469 65.384 86.4611 77.384 86.9768 81.4387C87.7033 86.9465 89.1096 95.7356 90.0471 101.548L90.0705 101.642L89.8127 101.665Z" fill="#658BC1"/>
<path d="M85.3594 25.9153C85.3594 26.759 85.0312 28.1653 82.8281 28.1653C81.2344 28.1653 79.2187 27.4856 78.4687 26.1965L78.3047 25.9153H85.3594V25.9153Z" fill="#C8D6DB"/>
<path d="M78.9607 25.9153C79.5466 26.9465 81.3044 27.6028 82.8279 27.6028C84.3513 27.6028 84.7966 26.8528 84.7966 25.9153H78.9607Z" fill="#F6AD86"/>
<path d="M87.3047 43.2356C87.3047 43.2122 87.3984 42.2747 86.4141 40.9153L87.3281 40.3762C88.4766 42.0872 88.3594 43.3059 88.3594 43.3762L87.3047 43.2356Z" fill="#82AACE"/>
<path d="M86.6014 40.3997C87.1171 40.1653 87.7967 40.2825 88.1483 40.6575C88.4764 41.0325 88.3358 41.5482 87.7967 41.7825C87.2811 42.0169 86.6014 41.8997 86.2499 41.5247C85.9217 41.1263 86.0624 40.6341 86.6014 40.3997Z" fill="#4E7DB0"/>
<path d="M89.2032 14.22C87.3282 11.1965 82.711 10.9622 81.8204 11.009C81.3516 11.0325 80.3203 11.3137 79.875 12.0169C79.8516 11.5247 79.875 11.0794 79.875 11.0794C79.4766 11.5715 79.4063 11.9934 79.4766 12.3215C79.1954 11.9465 79.0079 11.5481 79.0079 11.5481C78.9375 12.0637 79.0782 12.3684 79.2891 12.5325C78.0235 12.8372 76.4063 14.6184 76.9688 18.2747C77.2032 19.8684 80.8125 18.6497 81.8204 17.0559C82.5 18.1575 83.8594 18.3918 83.8594 18.3918C83.3907 17.9231 82.9688 17.22 82.6407 16.5168C84.5625 17.6887 87.1172 18.9544 87.4219 19.7278C87.4219 19.7278 87.9844 18.4856 87.5625 17.6887C87.5625 17.6887 89.086 18.0637 89.2735 19.5872C89.25 19.5403 91.1953 17.4543 89.2032 14.22Z" fill="#424344"/>
<path d="M84.7149 52.3922L84.4373 52.437L85.955 61.8308L86.2327 61.786L84.7149 52.3922Z" fill="#658BC1"/>
<path d="M85.8044 60.0403L85.7576 59.759C85.7576 59.759 86.3435 59.6653 86.6482 59.22C86.8357 58.9622 86.8826 58.634 86.8357 58.259L85.8748 52.3059L86.156 52.259L87.1169 58.2122C87.1873 58.6809 87.1169 59.0793 86.8826 59.384C86.5076 59.9465 85.8279 60.0403 85.8044 60.0403Z" fill="#658BC1"/>
<path d="M76.7345 18.4387C76.4532 19.0481 76.5001 19.7043 76.7579 20.2668C77.0626 20.9231 78.0236 20.8762 78.3048 20.22L79.1017 18.4387C79.4064 17.7825 78.797 17.0559 78.0939 17.2434C77.5079 17.4309 76.9923 17.8528 76.7345 18.4387Z" fill="#F6AD86"/>
<defs>
<linearGradient id="paint0_linear_302_197" x1="112.314" y1="108.451" x2="-6.59303" y2="-0.783" gradientUnits="userSpaceOnUse">
<stop stop-color="#6FC7DA"/>
<stop offset="0.3693" stop-color="#0D71B9"/>
<stop offset="0.7613" stop-color="#9E1460"/>
<stop offset="1" stop-color="#E7267A"/>
</linearGradient>
<linearGradient id="paint1_linear_302_197" x1="62.2984" y1="42.6937" x2="10.7442" y2="-11.9885" gradientUnits="userSpaceOnUse">
<stop stop-color="#6FC7DA"/>
<stop offset="1" stop-color="#9E1460"/>
</linearGradient>
<linearGradient id="paint2_linear_302_197" x1="37.7701" y1="93.3817" x2="8.43933" y2="90.1737" gradientUnits="userSpaceOnUse">
<stop stop-color="#6FC7DA"/>
<stop offset="0.6927" stop-color="#9E1460"/>
<stop offset="1" stop-color="#E7267A"/>
</linearGradient>
</defs>
</svg>
